<svg width="24" height="24" viewBox="0 0 24 24" fill="none" xmlns="http://www.w3.org/2000/svg">
<g clip-path="url(#clip0_7_119)">
<path d="M20.9893 14.985H3.00726C2.17996 14.985 1.47363 14.6923 0.888282 14.107C0.30293 13.5216 0.0102539 12.8153 0.0102539 11.988C0.0102539 11.1607 0.30293 10.4544 0.888282 9.86904C1.47363 9.28369 2.17996 8.99101 3.00726 8.99101H20.9893C21.8166 8.99101 22.5229 9.28369 23.1082 9.86904C23.6936 10.4544 23.9863 11.1607 23.9863 11.988C23.9863 12.8153 23.6936 13.5216 23.1082 14.107C22.5229 14.6923 21.8166 14.985 20.9893 14.985ZM20.9893 5.99401H3.00726C2.17996 5.99401 1.47363 5.70133 0.888282 5.11598C0.30293 4.53063 0.0102539 3.8243 0.0102539 2.997C0.0102539 2.16971 0.30293 1.46338 0.888282 0.878028C1.47363 0.292676 2.17996 0 3.00726 0H20.9893C21.8166 0 22.5229 0.292676 23.1082 0.878028C23.6936 1.46338 23.9863 2.16971 23.9863 2.997C23.9863 3.8243 23.6936 4.53063 23.1082 5.11598C22.5229 5.70133 21.8166 5.99401 20.9893 5.99401ZM3.00726 17.982H20.9893C21.8166 17.982 22.5229 18.2747 23.1082 18.86C23.6936 19.4454 23.9863 20.1517 23.9863 20.979C23.9863 21.8063 23.6936 22.5126 23.1082 23.098C22.5229 23.6833 21.8166 23.976 20.9893 23.976H3.00726C2.17996 23.976 1.47363 23.6833 0.888282 23.098C0.30293 22.5126 0.0102539 21.8063 0.0102539 20.979C0.0102539 20.1517 0.30293 19.4454 0.888282 18.86C1.47363 18.2747 2.17996 17.982 3.00726 17.982Z" fill="white"/>
</g>
<defs>
<clipPath id="clip0_7_119">
<rect width="24" height="23.976" fill="white"/>
</clipPath>
</defs>
</svg>
